<svg width="304" height="76" viewBox="0 0 304 76" fill="none" xmlns="http://www.w3.org/2000/svg">
<g clip-path="url(#clip0_952_10373)">
<path d="M31.9366 0.000488281H52.5173V5.85011H46.2936C45.1214 5.85011 44.0377 6.04771 43.041 6.44291C42.0443 6.83811 41.1751 7.39054 40.4334 8.10066C39.6908 8.81174 39.1151 9.68051 38.705 10.706C38.294 11.7316 38.089 12.8758 38.089 14.1398V30.4228H31.9366V0.000488281Z" fill="#EB6941"/>
<path d="M70.1674 31.008C67.978 31.008 65.938 30.6076 64.0431 29.8081C62.1482 29.0097 60.5074 27.9172 59.1216 26.5321C57.7348 25.1474 56.6406 23.5096 55.8399 21.6172C55.0387 19.7267 54.6391 17.6885 54.6391 15.504C54.6391 13.3199 55.0387 11.2831 55.8399 9.38931C56.6406 7.49833 57.7348 5.86101 59.1216 4.47591C60.5074 3.09128 62.1482 1.99973 64.0431 1.19888C65.938 0.400408 67.978 0.000457764 70.1674 0.000457764C72.3539 0.000457764 74.3953 0.400408 76.2902 1.19888C78.1846 1.99973 79.8259 3.09128 81.2127 4.47591C82.5985 5.86101 83.6928 7.49833 84.4934 9.38931C85.2946 11.2831 85.6956 13.3199 85.6956 15.504C85.6956 17.6885 85.2946 19.7267 84.4934 21.6172C83.6928 23.5096 82.5985 25.1474 81.2127 26.5321C79.8259 27.9172 78.1846 29.0097 76.2902 29.8081C74.3953 30.6076 72.3539 31.008 70.1674 31.008ZM70.1674 25.4505C71.4937 25.4505 72.7155 25.2163 73.8287 24.747C74.9424 24.2796 75.9001 23.6165 76.7008 22.7587C77.5 21.9013 78.1261 20.8572 78.5761 19.6289C79.0238 18.3996 79.2493 17.0254 79.2493 15.504C79.2493 13.9826 79.0238 12.6079 78.5761 11.3796C78.1261 10.1503 77.5 9.10858 76.7008 8.24978C75.9001 7.39098 74.9424 6.72836 73.8287 6.25953C72.7155 5.79213 71.4937 5.55796 70.1674 5.55796C68.8381 5.55796 67.6179 5.79213 66.5046 6.25953C65.3909 6.72836 64.4332 7.39098 63.634 8.24978C62.8319 9.10858 62.2072 10.1503 61.7586 11.3796C61.3081 12.6079 61.084 13.9826 61.084 15.504C61.084 17.0254 61.3081 18.3996 61.7586 19.6289C62.2072 20.8572 62.8319 21.9013 63.634 22.7587C64.4332 23.6165 65.3909 24.2796 66.5046 24.747C67.6179 25.2163 68.8381 25.4505 70.1674 25.4505Z" fill="#EB6941"/>
<path d="M90.3627 30.4223H109.735V24.5732H104.72C103.547 24.5732 102.464 24.3751 101.467 23.9804C100.471 23.5847 99.6017 23.0323 98.8595 22.3226C98.1169 21.6111 97.5412 20.7423 97.1311 19.7168C96.7201 18.6912 96.5155 17.547 96.5155 16.283V0H90.3627V30.4223Z" fill="#EB6941"/>
<path d="M113.294 30.4223H132.666V24.5732H127.651C126.478 24.5732 125.395 24.3751 124.398 23.9804C123.401 23.5847 122.532 23.0323 121.79 22.3226C121.048 21.6111 120.472 20.7423 120.061 19.7168C119.651 18.6912 119.446 17.547 119.446 16.283V0H113.294V30.4223Z" fill="#EB6941"/>
<path d="M14.063 65.2541C12.5392 65.2541 11.1629 65.1163 9.93165 64.8442C8.70138 64.572 7.61811 64.201 6.68042 63.7327C5.74321 63.2653 4.92207 62.7295 4.2194 62.1243C3.5153 61.5192 2.9092 60.9055 2.40159 60.2799C1.23078 58.8378 0.429154 57.18 -0.000442505 55.3081H6.73846C7.05103 56.1274 7.53914 56.868 8.20327 57.5306C8.7499 58.0773 9.49349 58.5751 10.4307 59.023C11.3684 59.4714 12.5782 59.6961 14.063 59.6961C15.2352 59.6961 16.2105 59.5987 16.9922 59.403C17.7743 59.2088 18.4089 58.9451 18.897 58.6131C19.3856 58.282 19.7272 57.9016 19.9227 57.4717C20.1178 57.0432 20.2158 56.6148 20.2158 56.1849C20.2158 55.328 19.7567 54.6635 18.839 54.1966C17.9203 53.7273 16.759 53.3392 15.3523 53.0262C13.9464 52.7141 12.4417 52.3825 10.8403 52.032C9.23849 51.68 7.73467 51.1642 6.3279 50.4811C4.92207 49.7995 3.75936 48.8718 2.84165 47.7024C1.92299 46.532 1.46437 44.9721 1.46437 43.0217C1.46437 41.9302 1.72841 40.8567 2.25601 39.8041C2.78266 38.751 3.55384 37.8152 4.5705 36.9959C5.58621 36.176 6.81648 35.5134 8.26227 35.0066C9.70662 34.4993 11.347 34.2466 13.1843 34.2466C16.1139 34.2466 18.4479 34.7339 20.1858 35.7086C21.9242 36.6838 23.243 37.7563 24.1416 38.9267C25.1968 40.2914 25.939 41.8513 26.3676 43.6074H19.9227C19.6492 42.9044 19.2201 42.2817 18.6339 41.7349C18.1259 41.2666 17.4322 40.8272 16.5535 40.4187C15.6753 40.0093 14.5511 39.8041 13.1843 39.8041C11.3094 39.8041 9.96115 40.1361 9.14049 40.7992C8.32126 41.4618 7.91022 42.2228 7.91022 43.0797C7.91022 43.938 8.36931 44.5925 9.28797 45.04C10.2057 45.4889 11.3684 45.8689 12.7737 46.1814C14.1796 46.493 15.6834 46.8241 17.2862 47.1761C18.8875 47.5271 20.3913 48.0444 21.7981 48.7255C23.2039 49.409 24.3667 50.3353 25.2844 51.5047C26.2021 52.6751 26.6616 54.235 26.6616 56.1849C26.6616 57.3553 26.3881 58.4868 25.841 59.5788C25.2934 60.6713 24.4927 61.637 23.4385 62.4749C22.3842 63.3132 21.0659 63.9868 19.4832 64.4931C17.9013 64.9995 16.094 65.2541 14.063 65.2541Z" fill="#EB6941"/>
<path d="M31.9366 34.8308H38.089V38.6341H38.3825C39.0466 37.8542 39.8473 37.1326 40.785 36.4695C41.5657 35.9233 42.5324 35.4155 43.6861 34.9486C44.8369 34.4798 46.1956 34.247 47.7584 34.247C49.7499 34.247 51.5958 34.6175 53.2951 35.358C54.9945 36.099 56.4793 37.1421 57.7481 38.4878C59.0183 39.8335 60.0141 41.4623 60.7377 43.3732C61.4599 45.2846 61.8214 47.4093 61.8214 49.7505C61.8214 52.0899 61.4599 54.217 60.7377 56.1279C60.0141 58.0383 59.0183 59.6671 57.7481 61.0128C56.4793 62.3575 54.9945 63.402 53.2951 64.1426C51.5958 64.8836 49.7499 65.2545 47.7584 65.2545C46.1956 65.2545 44.8369 65.0294 43.6861 64.581C42.5324 64.1331 41.5657 63.6367 40.785 63.089C39.8473 62.4273 39.0466 61.6854 38.3825 60.866H38.089V75.7858H31.9366V34.8308ZM46.5862 59.6966C49.2418 59.6966 51.3708 58.8477 52.9735 57.1506C54.5749 55.4543 55.3756 52.9886 55.3756 49.7505C55.3756 46.5139 54.5749 44.0453 52.9735 42.3486C51.3708 40.6519 49.2418 39.8045 46.5862 39.8045C44.0857 39.8045 42.0443 40.6519 40.4629 42.3486C38.8806 44.0453 38.089 46.5139 38.089 49.7505C38.089 52.9886 38.8806 55.4543 40.4629 57.1506C42.0443 58.8477 44.0857 59.6966 46.5862 59.6966Z" fill="#EB6941"/>
<path d="M73.2469 34.8308H67.0941V64.6689H73.2469V34.8308Z" fill="#EB6941"/>
<path d="M93.7548 65.2541C91.6463 65.2541 89.6624 64.8537 87.8075 64.0542C85.9516 63.2558 84.3298 62.1628 82.944 60.7782C81.5572 59.3935 80.4734 57.7557 79.6913 55.8633C78.9097 53.9724 78.521 51.9341 78.521 49.7501C78.521 47.566 78.9097 45.5292 79.6913 43.6354C80.4734 41.7444 81.5572 40.1066 82.944 38.722C84.3298 37.3374 85.9516 36.2458 87.8075 35.445C89.6624 34.6465 91.6463 34.2466 93.7548 34.2466C95.8652 34.2466 97.8476 34.6465 99.7035 35.445C101.557 36.2458 103.179 37.3374 104.567 38.722C105.953 40.1066 107.037 41.7444 107.819 43.6354C108.599 45.5292 108.99 47.566 108.99 49.7501V51.7978H84.6728C84.9079 53.0461 85.297 54.1576 85.8451 55.1323C86.3912 56.107 87.0753 56.9373 87.8965 57.6194C88.7157 58.302 89.6234 58.8178 90.6201 59.1684C91.6168 59.5208 92.6615 59.6961 93.7548 59.6961C95.2786 59.6961 96.5878 59.4914 97.6811 59.0815C98.7743 58.672 99.6535 58.1951 100.318 57.6484C101.1 57.0637 101.743 56.3801 102.252 55.5997H108.698C107.955 57.4342 106.92 59.052 105.592 60.4566C105.006 61.0408 104.342 61.626 103.6 62.2112C102.857 62.7964 101.997 63.3132 101.022 63.7616C100.045 64.211 98.9499 64.572 97.7401 64.8442C96.5288 65.1163 95.1996 65.2541 93.7548 65.2541ZM102.545 46.8241C102.389 45.9672 102.095 45.1084 101.666 44.2501C101.235 43.3932 100.649 42.6417 99.9076 41.9976C99.1659 41.3549 98.2867 40.8272 97.2719 40.4187C96.2553 40.0093 95.083 39.8041 93.7548 39.8041C92.7395 39.8041 91.7524 39.9608 90.7961 40.2715C89.8385 40.5845 88.9598 41.0424 88.1591 41.6466C87.3584 42.2517 86.6838 42.9927 86.1376 43.8696C85.5905 44.7469 85.2004 45.7325 84.9654 46.8241H102.545Z" fill="#EB6941"/>
<path d="M113.294 65.2061H132.666V59.357H127.651C126.478 59.357 125.395 59.1589 124.398 58.7642C123.401 58.3685 122.532 57.8161 121.79 57.1064C121.048 56.3953 120.472 55.5261 120.061 54.5006C119.651 53.475 119.446 52.3308 119.446 51.0668V34.7838H113.294V65.2061Z" fill="#EB6941"/>
<path d="M159.579 30.4223V20.4473H163.79C164.407 20.4473 164.96 20.5661 165.445 20.8036C165.931 21.0411 166.31 21.3878 166.586 21.8434C166.863 22.2998 167.001 22.8409 167.001 23.4679C167.001 24.0953 166.863 24.6368 166.586 25.0924C166.31 25.5488 165.931 25.8961 165.445 26.1336C164.96 26.3711 164.407 26.4898 163.79 26.4898H161.006V30.4223H159.579ZM163.575 25.2068C164.222 25.2068 164.717 25.0601 165.06 24.7651C165.402 24.4711 165.574 24.0388 165.574 23.4679C165.574 22.8983 165.402 22.4661 165.06 22.1721C164.717 21.8771 164.222 21.7294 163.575 21.7294H161.006V25.2068H163.575Z" fill="#EB6941"/>
<path d="M169.912 20.4473H168.556V30.4223H169.912V20.4473Z" fill="#EB6941"/>
<path d="M173.979 30.5653C173.532 30.5653 173.13 30.4746 172.773 30.2946C172.417 30.1136 172.136 29.8623 171.93 29.5393C171.726 29.2163 171.624 28.8544 171.624 28.4558C171.624 27.9528 171.752 27.5419 172.009 27.2237C172.266 26.9054 172.587 26.6727 172.973 26.525C173.358 26.3777 173.774 26.2856 174.222 26.2466L176.191 26.0908V25.8628C176.191 25.5294 176.131 25.2477 176.012 25.0145C175.893 24.7817 175.722 24.6036 175.498 24.4801C175.276 24.3571 175.012 24.2948 174.707 24.2948H174.593C174.202 24.2948 173.87 24.3875 173.594 24.5732C173.318 24.7575 173.161 25.0221 173.123 25.3636H171.767C171.805 24.7086 172.092 24.1761 172.63 23.7676C173.167 23.3596 173.841 23.1544 174.65 23.1544C175.259 23.1544 175.782 23.276 176.22 23.5182C176.657 23.7605 176.988 24.0877 177.212 24.5015C177.435 24.9147 177.547 25.3683 177.547 25.8628V28.8544C177.547 29.1783 177.552 29.4296 177.561 29.6096C177.561 29.7436 177.566 29.8789 177.575 30.0162C177.585 30.1544 177.599 30.2898 177.618 30.4223H176.334C176.314 30.3178 176.301 30.2091 176.291 30.0951C176.282 29.9811 176.277 29.8623 176.277 29.7388C176.267 29.6338 176.262 29.5412 176.262 29.4605V29.2823C176.11 29.6338 175.828 29.9355 175.413 30.1877C175 30.439 174.521 30.5653 173.979 30.5653ZM174.25 29.4253C174.545 29.4253 174.842 29.3536 175.142 29.2106C175.442 29.0691 175.692 28.8757 175.892 28.634C176.091 28.3917 176.191 28.1328 176.191 27.8573V27.1311L174.407 27.2726C173.979 27.3106 173.633 27.4279 173.373 27.6227C173.111 27.8174 172.979 28.0763 172.979 28.3988C172.979 28.6933 173.089 28.938 173.309 29.1327C173.527 29.3279 173.803 29.4253 174.136 29.4253H174.25Z" fill="#EB6941"/>
<path d="M179.617 30.4223V23.2973H180.973V24.2948C181.211 23.9429 181.515 23.6655 181.886 23.4617C182.258 23.2574 182.714 23.1544 183.256 23.1544C183.799 23.1544 184.263 23.2574 184.647 23.4617C185.033 23.6655 185.326 23.9552 185.526 24.3309C185.725 24.7057 185.826 25.1456 185.826 25.6481V30.4223H184.469V25.9341C184.469 25.5916 184.42 25.2995 184.32 25.0572C184.22 24.815 184.063 24.6278 183.849 24.4943C183.635 24.3613 183.361 24.2948 183.028 24.2948H182.914C182.572 24.2948 182.252 24.3799 181.958 24.5518C181.663 24.7223 181.424 24.9693 181.244 25.2919C181.063 25.6158 180.973 25.9953 180.973 26.4323V30.4223H179.617Z" fill="#EB6941"/>
<path d="M190.25 30.5653C189.726 30.5653 189.285 30.4561 188.923 30.2371C188.561 30.0191 188.287 29.7174 188.102 29.3322C187.917 28.9475 187.824 28.5038 187.824 28.0003V23.2973H189.179V27.7153C189.179 28.2848 189.298 28.7128 189.536 28.9973C189.774 29.2823 190.137 29.4253 190.621 29.4253H190.736C191.05 29.4253 191.342 29.3322 191.613 29.147C191.884 28.9622 192.105 28.6957 192.277 28.349C192.448 28.0022 192.534 27.6013 192.534 27.1448V23.2973H193.889V30.4223H192.534V29.0691C192.381 29.4966 192.108 29.8528 191.713 30.1378C191.318 30.4223 190.831 30.5653 190.25 30.5653Z" fill="#EB6941"/>
<path d="M196.03 30.4223V23.2973H197.386V24.2948C197.624 23.9429 197.928 23.6655 198.299 23.4617C198.671 23.2574 199.127 23.1544 199.669 23.1544C200.212 23.1544 200.676 23.2574 201.061 23.4617C201.446 23.6655 201.739 23.9552 201.939 24.3309C202.139 24.7057 202.239 25.1456 202.239 25.6481V30.4223H200.882V25.9341C200.882 25.5916 200.833 25.2995 200.733 25.0572C200.633 24.815 200.476 24.6278 200.262 24.4943C200.048 24.3613 199.774 24.2948 199.441 24.2948H199.327C198.985 24.2948 198.665 24.3799 198.371 24.5518C198.076 24.7223 197.837 24.9693 197.657 25.2919C197.476 25.6158 197.386 25.9953 197.386 26.4323V30.4223H196.03Z" fill="#EB6941"/>
<path d="M207.062 33.5573C206.415 33.5573 205.849 33.4647 205.364 33.2799C204.878 33.0942 204.5 32.8329 204.229 32.4962C203.958 32.1584 203.798 31.7761 203.751 31.3486H205.107C205.173 31.6906 205.378 31.9542 205.721 32.1399C206.062 32.3252 206.486 32.4173 206.991 32.4173H207.133C207.77 32.4173 208.275 32.2416 208.646 31.8901C209.017 31.5386 209.203 31.0013 209.203 30.2798V29.2823C209.003 29.6053 208.72 29.8761 208.354 30.095C207.987 30.3131 207.557 30.4223 207.062 30.4223C206.491 30.4223 205.965 30.2898 205.485 30.0238C205.004 29.7573 204.619 29.3517 204.329 28.8054C204.039 28.2592 203.894 27.5866 203.894 26.7886C203.894 25.9906 204.036 25.3189 204.321 24.7727C204.608 24.2259 204.991 23.8198 205.471 23.5533C205.951 23.2883 206.482 23.1548 207.062 23.1548C207.566 23.1548 208.011 23.2669 208.397 23.4897C208.781 23.7129 209.051 23.9813 209.203 24.2948V23.2973H210.559V30.4223C210.559 31.0208 210.421 31.558 210.145 32.033C209.868 32.508 209.467 32.8809 208.938 33.1512C208.411 33.4219 207.786 33.5573 207.062 33.5573ZM207.233 29.2823C207.566 29.2823 207.885 29.1802 208.19 28.9759C208.494 28.7722 208.739 28.4824 208.925 28.1067C209.111 27.7319 209.203 27.2925 209.203 26.7886C209.203 26.2855 209.115 25.8433 208.938 25.4638C208.763 25.0833 208.53 24.794 208.24 24.5945C207.949 24.395 207.638 24.2948 207.305 24.2948H207.191C206.838 24.2948 206.515 24.3832 206.22 24.5584C205.925 24.7347 205.689 25.0073 205.513 25.3783C205.337 25.7488 205.249 26.219 205.249 26.7886C205.249 27.6345 205.423 28.262 205.77 28.67C206.118 29.0781 206.567 29.2823 207.119 29.2823H207.233Z" fill="#EB6941"/>
<path d="M215.084 30.5653C214.161 30.5653 213.443 30.3463 212.929 29.9093C212.415 29.4723 212.158 28.9076 212.158 28.2136H213.514C213.551 28.6226 213.714 28.9261 213.999 29.1256C214.284 29.3251 214.651 29.4253 215.097 29.4253H215.212C215.593 29.4253 215.908 29.3398 216.162 29.1683C216.413 28.9973 216.54 28.7746 216.54 28.4981C216.54 28.2616 216.463 28.0668 216.311 27.9148C216.159 27.7628 215.911 27.6531 215.569 27.5866L214.527 27.3871C213.899 27.2636 213.394 27.0361 213.014 26.7031C212.633 26.3711 212.444 25.9193 212.444 25.3498C212.444 24.8933 212.566 24.4991 212.814 24.1666C213.062 23.8346 213.389 23.5823 213.8 23.4113C214.208 23.2408 214.655 23.1544 215.141 23.1544C216.045 23.1544 216.741 23.371 217.232 23.8032C217.722 24.2355 217.967 24.8031 217.967 25.5066H216.611C216.573 25.1546 216.439 24.8653 216.212 24.6373C215.983 24.4088 215.649 24.2948 215.212 24.2948H215.097C214.707 24.2948 214.394 24.3827 214.156 24.5585C213.918 24.7347 213.8 24.9508 213.8 25.2068C213.8 25.4543 213.878 25.651 214.035 25.7987C214.192 25.9459 214.446 26.0528 214.798 26.1188L215.926 26.3468C216.526 26.4608 217.003 26.6865 217.36 27.0242C217.717 27.361 217.895 27.8284 217.895 28.4278C217.895 28.8453 217.776 29.2182 217.538 29.546C217.301 29.8742 216.97 30.1255 216.547 30.3007C216.124 30.477 215.635 30.5653 215.084 30.5653Z" fill="#EB6941"/>
<path d="M223.376 30.5653C222.881 30.5653 222.41 30.4561 221.962 30.2371C221.516 30.0191 221.202 29.7478 221.02 29.4253V30.4223H219.665V20.4473H221.02V24.2948C221.202 23.9628 221.493 23.6887 221.899 23.4755C222.303 23.2622 222.748 23.1544 223.233 23.1544C223.832 23.1544 224.377 23.3021 224.867 23.5971C225.357 23.8911 225.743 24.3191 226.023 24.8791C226.304 25.4396 226.444 26.1003 226.444 26.8598C226.444 27.6289 226.313 28.2924 226.052 28.8482C225.79 29.4039 225.428 29.8286 224.967 30.1226C224.505 30.4176 223.975 30.5653 223.376 30.5653ZM223.147 29.4253C223.518 29.4253 223.849 29.3279 224.139 29.1327C224.43 28.938 224.66 28.6487 224.831 28.2635C225.003 27.8787 225.088 27.4108 225.088 26.8598C225.088 26.0333 224.907 25.3997 224.546 24.957C224.184 24.5157 223.718 24.2948 223.147 24.2948H223.033C222.681 24.2948 222.353 24.3922 222.048 24.587C221.743 24.7817 221.496 25.0738 221.305 25.4638C221.115 25.8533 221.02 26.3183 221.02 26.8598C221.02 27.4018 221.115 27.8673 221.305 28.2563C221.496 28.6458 221.743 28.938 222.048 29.1327C222.353 29.3279 222.681 29.4253 223.033 29.4253H223.147Z" fill="#EB6941"/>
<path d="M230.526 30.5653C230.003 30.5653 229.561 30.456 229.199 30.2371C228.838 30.019 228.564 29.7174 228.379 29.3322C228.193 28.9474 228.1 28.5038 228.1 28.0003V23.2973H229.456V27.7153C229.456 28.2848 229.575 28.7128 229.813 28.9973C230.05 29.2823 230.413 29.4253 230.898 29.4253H231.012C231.326 29.4253 231.618 29.3322 231.889 29.1469C232.161 28.9622 232.382 28.6957 232.554 28.3489C232.725 28.0022 232.81 27.6013 232.81 27.1448V23.2973H234.166V30.4223H232.81V29.069C232.658 29.4965 232.384 29.8528 231.99 30.1378C231.595 30.4223 231.107 30.5653 230.526 30.5653ZM229.071 20.519H230.498V22.0153H229.071V20.519ZM231.783 20.519H233.21V22.0153H231.783V20.519Z" fill="#EB6941"/>
<path d="M236.306 30.4223V23.2973H237.59V24.8653C237.734 24.3428 237.993 23.9386 238.369 23.6536C238.745 23.3686 239.175 23.2261 239.661 23.2261H240.303V24.5366H239.731C239.085 24.5366 238.578 24.7389 238.212 25.1427C237.845 25.546 237.662 26.1046 237.662 26.8171V30.4223H236.306Z" fill="#EB6941"/>
<path d="M244.427 30.5653C243.79 30.5653 243.209 30.4086 242.686 30.0951C242.163 29.7816 241.751 29.3446 241.452 28.7841C241.152 28.2236 241.003 27.5818 241.003 26.8598C241.003 26.1383 241.152 25.4971 241.452 24.9356C241.751 24.3756 242.163 23.9386 242.686 23.6251C243.209 23.3116 243.79 23.1544 244.427 23.1544C245.065 23.1544 245.646 23.3116 246.169 23.6251C246.692 23.9386 247.103 24.3756 247.404 24.9356C247.703 25.4971 247.853 26.1383 247.853 26.8598C247.853 27.5818 247.703 28.2236 247.404 28.7841C247.103 29.3446 246.692 29.7816 246.169 30.0951C245.646 30.4086 245.065 30.5653 244.427 30.5653ZM244.485 29.4253C244.874 29.4253 245.222 29.3232 245.527 29.1189C245.831 28.9137 246.069 28.6197 246.24 28.235C246.411 27.8507 246.497 27.3923 246.497 26.8598C246.497 26.3283 246.411 25.869 246.24 25.4852C246.069 25.1 245.831 24.8059 245.527 24.6007C245.222 24.397 244.874 24.2948 244.485 24.2948H244.371C243.981 24.2948 243.633 24.397 243.329 24.6007C243.024 24.8059 242.787 25.1 242.615 25.4852C242.444 25.869 242.358 26.3283 242.358 26.8598C242.358 27.3923 242.444 27.8507 242.615 28.235C242.787 28.6197 243.024 28.9137 243.329 29.1189C243.633 29.3232 243.981 29.4253 244.371 29.4253H244.485Z" fill="#EB6941"/>
<path d="M255.389 30.5653C254.865 30.5653 254.423 30.4561 254.062 30.2371C253.7 30.0191 253.426 29.7174 253.241 29.3322C253.056 28.9475 252.962 28.5038 252.962 28.0003V23.2973H254.318V27.7153C254.318 28.2848 254.437 28.7128 254.675 28.9973C254.913 29.2823 255.275 29.4253 255.76 29.4253H255.874C256.189 29.4253 256.48 29.3322 256.752 29.147C257.023 28.9622 257.244 28.6957 257.416 28.349C257.587 28.0022 257.673 27.6013 257.673 27.1448V23.2973H259.028V30.4223H257.673V29.0691C257.52 29.4966 257.247 29.8528 256.852 30.1378C256.457 30.4223 255.969 30.5653 255.389 30.5653Z" fill="#EB6941"/>
<path d="M261.169 30.4223V23.2973H262.525V24.2948C262.763 23.9429 263.067 23.6655 263.438 23.4617C263.81 23.2574 264.266 23.1544 264.808 23.1544C265.351 23.1544 265.815 23.2574 266.199 23.4617C266.585 23.6655 266.878 23.9552 267.078 24.3309C267.277 24.7057 267.378 25.1456 267.378 25.6481V30.4223H266.021V25.9341C266.021 25.5916 265.972 25.2995 265.872 25.0572C265.772 24.815 265.615 24.6278 265.401 24.4943C265.186 24.3613 264.912 24.2948 264.58 24.2948H264.466C264.124 24.2948 263.804 24.3799 263.509 24.5518C263.215 24.7223 262.976 24.9693 262.796 25.2919C262.615 25.6158 262.525 25.9953 262.525 26.4323V30.4223H261.169Z" fill="#EB6941"/>
<path d="M272.101 30.5653C271.502 30.5653 270.972 30.4176 270.51 30.1226C270.049 29.8286 269.687 29.4039 269.425 28.8482C269.163 28.2924 269.033 27.6289 269.033 26.8598C269.033 26.1003 269.174 25.4396 269.454 24.8791C269.735 24.3191 270.12 23.8911 270.61 23.5971C271.1 23.3021 271.644 23.1544 272.245 23.1544C272.729 23.1544 273.174 23.2622 273.579 23.4755C273.983 23.6887 274.276 23.9628 274.456 24.2948V20.4473H275.813V30.4223H274.456V29.4253C274.276 29.7478 273.962 30.0191 273.515 30.2371C273.067 30.4561 272.596 30.5653 272.101 30.5653ZM272.444 29.4253C272.796 29.4253 273.124 29.3279 273.428 29.1327C273.733 28.938 273.98 28.6458 274.171 28.2563C274.361 27.8673 274.456 27.4018 274.456 26.8598C274.456 26.3183 274.361 25.8533 274.171 25.4638C273.98 25.0738 273.733 24.7817 273.428 24.587C273.124 24.3922 272.796 24.2948 272.444 24.2948H272.33C271.958 24.2948 271.628 24.3922 271.338 24.587C271.048 24.7817 270.817 25.0715 270.645 25.4562C270.474 25.8414 270.389 26.3088 270.389 26.8598C270.389 27.6863 270.569 28.32 270.931 28.7627C271.292 29.2044 271.758 29.4253 272.33 29.4253H272.444Z" fill="#EB6941"/>
<path d="M159.579 47.8073V37.8323H166.573V39.1144H161.006V42.3206H165.859V43.6036H161.006V47.8073H159.579Z" fill="#EB6941"/>
<path d="M170.797 47.9503C170.159 47.9503 169.578 47.7935 169.055 47.48C168.532 47.1665 168.121 46.7295 167.821 46.169C167.521 45.6085 167.372 44.9668 167.372 44.2448C167.372 43.5233 167.521 42.882 167.821 42.3206C168.121 41.7606 168.532 41.3236 169.055 41.0101C169.578 40.6966 170.159 40.5393 170.797 40.5393C171.434 40.5393 172.015 40.6966 172.538 41.0101C173.061 41.3236 173.473 41.7606 173.773 42.3206C174.072 42.882 174.222 43.5233 174.222 44.2448C174.222 44.9668 174.072 45.6085 173.773 46.169C173.473 46.7295 173.061 47.1665 172.538 47.48C172.015 47.7935 171.434 47.9503 170.797 47.9503ZM170.854 46.8103C171.243 46.8103 171.591 46.7082 171.896 46.5039C172.201 46.2987 172.438 46.0047 172.61 45.6199C172.78 45.2357 172.866 44.7773 172.866 44.2448C172.866 43.7133 172.78 43.254 172.61 42.8702C172.438 42.4849 172.201 42.1909 171.896 41.9857C171.591 41.7819 171.243 41.6798 170.854 41.6798H170.74C170.35 41.6798 170.002 41.7819 169.698 41.9857C169.394 42.1909 169.156 42.4849 168.985 42.8702C168.813 43.254 168.727 43.7133 168.727 44.2448C168.727 44.7773 168.813 45.2357 168.985 45.6199C169.156 46.0047 169.394 46.2987 169.698 46.5039C170.002 46.7082 170.35 46.8103 170.74 46.8103H170.854Z" fill="#EB6941"/>
<path d="M175.92 47.8073V40.6823H177.204V42.2503C177.348 41.7278 177.607 41.3236 177.983 41.0386C178.359 40.7536 178.789 40.6111 179.275 40.6111H179.917V41.9216H179.345C178.699 41.9216 178.192 42.1239 177.826 42.5277C177.459 42.931 177.276 43.4896 177.276 44.2021V47.8073H175.92Z" fill="#EB6941"/>
<path d="M183.57 47.9503C182.648 47.9503 181.929 47.7313 181.416 47.2943C180.902 46.8573 180.645 46.2925 180.645 45.5986H182.001C182.038 46.0075 182.201 46.3111 182.486 46.5106C182.771 46.7101 183.137 46.8103 183.584 46.8103H183.699C184.079 46.8103 184.395 46.7248 184.648 46.5533C184.9 46.3823 185.027 46.1595 185.027 45.8831C185.027 45.6465 184.95 45.4518 184.798 45.2998C184.646 45.1478 184.398 45.0381 184.056 44.9716L183.014 44.7721C182.386 44.6486 181.881 44.421 181.501 44.0881C181.12 43.756 180.93 43.3043 180.93 42.7348C180.93 42.2783 181.053 41.8841 181.301 41.5516C181.548 41.2195 181.876 40.9673 182.286 40.7963C182.695 40.6258 183.142 40.5393 183.628 40.5393C184.531 40.5393 185.228 40.7559 185.719 41.1882C186.208 41.6204 186.454 42.1881 186.454 42.8915H185.098C185.06 42.5396 184.926 42.2503 184.698 42.0223C184.47 41.7938 184.136 41.6798 183.699 41.6798H183.584C183.194 41.6798 182.881 41.7677 182.643 41.9434C182.405 42.1197 182.286 42.3358 182.286 42.5918C182.286 42.8393 182.364 43.0359 182.521 43.1837C182.678 43.3309 182.933 43.4378 183.285 43.5038L184.412 43.7318C185.012 43.8458 185.49 44.0714 185.847 44.4092C186.204 44.7459 186.382 45.2133 186.382 45.8128C186.382 46.2303 186.263 46.6032 186.025 46.9309C185.787 47.2592 185.457 47.5104 185.034 47.6857C184.61 47.8619 184.122 47.9503 183.57 47.9503Z" fill="#EB6941"/>
<path d="M191.149 47.9503C190.435 47.9503 189.821 47.7888 189.307 47.4653C188.794 47.1423 188.401 46.7006 188.13 46.1401C187.859 45.58 187.723 44.9483 187.723 44.2448C187.723 43.5418 187.859 42.9101 188.13 42.3496C188.401 41.7891 188.794 41.3478 189.307 41.0248C189.821 40.7018 190.435 40.5393 191.149 40.5393C191.691 40.5393 192.174 40.6424 192.598 40.8467C193.02 41.0509 193.36 41.3402 193.618 41.7159C193.874 42.0907 194.027 42.5305 194.074 43.0331H192.718C192.651 42.6346 192.483 42.3097 192.212 42.0574C191.941 41.8057 191.605 41.6798 191.206 41.6798H191.091C190.654 41.6798 190.283 41.7967 189.978 42.0285C189.673 42.2622 189.448 42.5733 189.3 42.9628C189.153 43.3523 189.078 43.7793 189.078 44.2448C189.078 44.9668 189.253 45.5753 189.6 46.0688C189.948 46.5633 190.445 46.8103 191.091 46.8103H191.206C191.605 46.8103 191.941 46.6839 192.212 46.4327C192.483 46.1809 192.651 45.8555 192.718 45.4565H194.074C194.008 46.2256 193.708 46.8331 193.176 47.2805C192.642 47.7266 191.967 47.9503 191.149 47.9503Z" fill="#EB6941"/>
<path d="M195.745 47.8073V37.8323H197.1V41.6798C197.338 41.3279 197.643 41.0505 198.014 40.8467C198.385 40.6424 198.842 40.5394 199.384 40.5394C199.927 40.5394 200.391 40.6424 200.775 40.8467C201.161 41.0505 201.454 41.3402 201.653 41.7159C201.853 42.0907 201.954 42.5306 201.954 43.0331V47.8073H200.597V43.3191C200.597 42.9766 200.548 42.6845 200.447 42.4422C200.348 42.2 200.191 42.0128 199.976 41.8793C199.762 41.7463 199.488 41.6798 199.156 41.6798H199.042C198.699 41.6798 198.38 41.7649 198.085 41.9368C197.791 42.1073 197.552 42.3543 197.372 42.6769C197.19 43.0008 197.1 43.3803 197.1 43.8173V47.8073H195.745Z" fill="#EB6941"/>
<path d="M206.377 47.9503C205.854 47.9503 205.412 47.841 205.051 47.6221C204.689 47.404 204.415 47.1024 204.23 46.7172C204.044 46.3324 203.951 45.8888 203.951 45.3853V40.6823H205.307V45.1003C205.307 45.6698 205.426 46.0978 205.664 46.3823C205.902 46.6673 206.264 46.8103 206.749 46.8103H206.863C207.178 46.8103 207.469 46.7172 207.74 46.5319C208.012 46.3472 208.233 46.0807 208.405 45.7339C208.576 45.3872 208.662 44.9863 208.662 44.5298V40.6823H210.017V47.8073H208.662V46.454C208.509 46.8815 208.236 47.2378 207.841 47.5228C207.446 47.8073 206.958 47.9503 206.377 47.9503Z" fill="#EB6941"/>
<path d="M212.158 47.8073V40.6823H213.514V41.6798C213.752 41.3278 214.056 41.0504 214.427 40.8467C214.799 40.6424 215.255 40.5393 215.797 40.5393C216.34 40.5393 216.804 40.6424 217.188 40.8467C217.574 41.0504 217.867 41.3402 218.067 41.7159C218.266 42.0907 218.367 42.5305 218.367 43.0331V47.8073H217.01V43.319C217.01 42.9766 216.961 42.6844 216.86 42.4422C216.761 42.1999 216.604 42.0128 216.39 41.8793C216.175 41.7463 215.901 41.6798 215.569 41.6798H215.455C215.113 41.6798 214.793 41.7648 214.498 41.9368C214.204 42.1073 213.965 42.3543 213.785 42.6768C213.604 43.0008 213.514 43.3803 213.514 43.8173V47.8073H212.158Z" fill="#EB6941"/>
<path d="M223.19 50.9423C222.543 50.9423 221.977 50.8497 221.492 50.6649C221.006 50.4792 220.627 50.218 220.357 49.8812C220.086 49.5435 219.926 49.1611 219.879 48.7336H221.234C221.301 49.0756 221.506 49.3392 221.849 49.5249C222.19 49.7102 222.614 49.8023 223.119 49.8023H223.261C223.898 49.8023 224.403 49.6266 224.773 49.2751C225.145 48.9236 225.331 48.3864 225.331 47.6648V46.6673C225.13 46.9903 224.848 47.2611 224.482 47.4801C224.115 47.6981 223.684 47.8073 223.19 47.8073C222.619 47.8073 222.093 47.6748 221.613 47.4088C221.132 47.1423 220.746 46.7367 220.457 46.1904C220.167 45.6442 220.022 44.9716 220.022 44.1736C220.022 43.3756 220.164 42.7039 220.449 42.1577C220.735 41.611 221.118 41.2048 221.598 40.9384C222.079 40.6733 222.609 40.5398 223.19 40.5398C223.694 40.5398 224.139 40.6519 224.525 40.8747C224.909 41.098 225.179 41.3663 225.331 41.6798V40.6823H226.687V47.8073C226.687 48.4058 226.548 48.9431 226.273 49.4181C225.996 49.8931 225.595 50.2659 225.066 50.5362C224.538 50.807 223.913 50.9423 223.19 50.9423ZM223.361 46.6673C223.694 46.6673 224.013 46.5652 224.317 46.361C224.622 46.1572 224.866 45.8674 225.052 45.4917C225.238 45.1169 225.331 44.6776 225.331 44.1736C225.331 43.6706 225.243 43.2283 225.066 42.8488C224.89 42.4683 224.657 42.1791 224.368 41.9796C224.076 41.7801 223.765 41.6798 223.433 41.6798H223.319C222.966 41.6798 222.643 41.7682 222.348 41.9435C222.053 42.1197 221.817 42.3923 221.641 42.7633C221.465 43.1338 221.377 43.6041 221.377 44.1736C221.377 45.0196 221.55 45.647 221.898 46.0551C222.245 46.4631 222.695 46.6673 223.247 46.6673H223.361Z" fill="#EB6941"/>
<path d="M231.211 47.9503C230.289 47.9503 229.57 47.7313 229.057 47.2943C228.543 46.8573 228.285 46.2925 228.285 45.5986H229.642C229.679 46.0075 229.842 46.3111 230.127 46.5106C230.412 46.7101 230.778 46.8103 231.225 46.8103H231.34C231.72 46.8103 232.036 46.7248 232.289 46.5533C232.541 46.3823 232.667 46.1595 232.667 45.8831C232.667 45.6465 232.591 45.4518 232.439 45.2998C232.286 45.1478 232.039 45.0381 231.696 44.9716L230.655 44.7721C230.027 44.6486 229.522 44.421 229.142 44.0881C228.761 43.756 228.571 43.3043 228.571 42.7348C228.571 42.2783 228.694 41.8841 228.942 41.5516C229.189 41.2195 229.517 40.9673 229.927 40.7963C230.336 40.6258 230.783 40.5393 231.269 40.5393C232.172 40.5393 232.869 40.7559 233.36 41.1882C233.849 41.6204 234.095 42.1881 234.095 42.8915H232.739C232.701 42.5396 232.567 42.2503 232.339 42.0223C232.111 41.7938 231.777 41.6798 231.34 41.6798H231.225C230.835 41.6798 230.522 41.7677 230.284 41.9434C230.046 42.1197 229.927 42.3358 229.927 42.5918C229.927 42.8393 230.005 43.0359 230.162 43.1837C230.319 43.3309 230.574 43.4378 230.926 43.5038L232.053 43.7318C232.653 43.8458 233.131 44.0714 233.488 44.4092C233.844 44.7459 234.023 45.2133 234.023 45.8128C234.023 46.2303 233.904 46.6032 233.666 46.9309C233.428 47.2592 233.098 47.5104 232.675 47.6857C232.251 47.8619 231.763 47.9503 231.211 47.9503Z" fill="#EB6941"/>
<path d="M238.176 47.9503C237.254 47.9503 236.535 47.7313 236.021 47.2943C235.508 46.8573 235.25 46.2925 235.25 45.5986H236.607C236.644 46.0075 236.806 46.3111 237.092 46.5106C237.377 46.7101 237.743 46.8103 238.19 46.8103H238.305C238.685 46.8103 239.001 46.7248 239.254 46.5533C239.506 46.3823 239.632 46.1595 239.632 45.8831C239.632 45.6465 239.556 45.4518 239.404 45.2998C239.251 45.1478 239.004 45.0381 238.661 44.9716L237.62 44.7721C236.992 44.6486 236.487 44.421 236.107 44.0881C235.726 43.756 235.536 43.3043 235.536 42.7348C235.536 42.2783 235.659 41.8841 235.907 41.5516C236.154 41.2195 236.482 40.9673 236.892 40.7963C237.301 40.6258 237.748 40.5393 238.234 40.5393C239.137 40.5393 239.834 40.7559 240.325 41.1882C240.814 41.6204 241.06 42.1881 241.06 42.8915H239.704C239.666 42.5396 239.532 42.2503 239.304 42.0223C239.076 41.7938 238.742 41.6798 238.305 41.6798H238.19C237.8 41.6798 237.487 41.7677 237.249 41.9434C237.011 42.1197 236.892 42.3358 236.892 42.5918C236.892 42.8393 236.97 43.0359 237.127 43.1837C237.284 43.3309 237.539 43.4378 237.891 43.5038L239.018 43.7318C239.618 43.8458 240.096 44.0714 240.453 44.4092C240.809 44.7459 240.988 45.2133 240.988 45.8128C240.988 46.2303 240.869 46.6032 240.631 46.9309C240.393 47.2592 240.062 47.5104 239.64 47.6857C239.216 47.8619 238.728 47.9503 238.176 47.9503Z" fill="#EB6941"/>
<path d="M244.998 47.8073C244.504 47.8073 244.118 47.67 243.842 47.3945C243.566 47.119 243.429 46.7338 243.429 46.2393V41.8503H241.858V40.6823H243.429V38.3743H244.785V40.6823H246.497V41.8503H244.785V46.0261C244.785 46.2346 244.828 46.3823 244.913 46.4678C244.998 46.5528 245.146 46.5956 245.355 46.5956H246.712V47.8073H244.998Z" fill="#EB6941"/>
<path d="M251.036 47.9503C250.427 47.9503 249.868 47.8092 249.359 47.529C248.849 47.2497 248.44 46.8288 248.131 46.2683C247.822 45.7078 247.667 45.029 247.667 44.231C247.667 43.4425 247.822 42.7699 248.131 42.2142C248.44 41.6584 248.849 41.2409 249.359 40.9597C249.868 40.6804 250.412 40.5393 250.993 40.5393C251.601 40.5393 252.135 40.6704 252.591 40.9322C253.048 41.1934 253.4 41.5611 253.647 42.0361C253.895 42.5111 254.018 43.0573 254.018 43.6753V44.4581H249.023C249.052 44.9716 249.166 45.4038 249.366 45.7553C249.565 46.1068 249.816 46.3704 250.114 46.5467C250.415 46.7219 250.717 46.8103 251.022 46.8103H251.136C251.507 46.8103 251.835 46.7153 252.121 46.5253C252.406 46.3353 252.582 46.0598 252.649 45.6988H254.004C253.88 46.4018 253.543 46.9518 252.991 47.3508C252.439 47.7508 251.787 47.9503 251.036 47.9503ZM252.663 43.3893C252.634 42.8108 252.47 42.38 252.17 42.1002C251.871 41.8199 251.497 41.6798 251.05 41.6798H250.936C250.517 41.6798 250.139 41.818 249.801 42.0935C249.463 42.369 249.233 42.8013 249.109 43.3893H252.663Z" fill="#EB6941"/>
<path d="M257.13 37.8323H255.774V47.8073H257.13V37.8323Z" fill="#EB6941"/>
<path d="M260.626 37.8323H259.271V47.8073H260.626V37.8323Z" fill="#EB6941"/>
<path d="M265.707 47.9503C265.099 47.9503 264.539 47.8092 264.03 47.529C263.521 47.2497 263.112 46.8288 262.803 46.2683C262.494 45.7078 262.339 45.029 262.339 44.231C262.339 43.4425 262.494 42.7699 262.803 42.2142C263.112 41.6584 263.521 41.2409 264.03 40.9597C264.539 40.6804 265.084 40.5393 265.665 40.5393C266.273 40.5393 266.807 40.6704 267.263 40.9322C267.72 41.1934 268.072 41.5611 268.319 42.0361C268.567 42.5111 268.69 43.0573 268.69 43.6753V44.4581H263.695C263.724 44.9716 263.838 45.4038 264.038 45.7553C264.237 46.1068 264.488 46.3704 264.786 46.5467C265.087 46.7219 265.389 46.8103 265.694 46.8103H265.808C266.178 46.8103 266.507 46.7153 266.793 46.5253C267.078 46.3353 267.254 46.0598 267.321 45.6988H268.676C268.552 46.4018 268.215 46.9518 267.663 47.3508C267.111 47.7508 266.459 47.9503 265.707 47.9503ZM267.334 43.3893C267.306 42.8108 267.142 42.38 266.842 42.1002C266.543 41.8199 266.169 41.6798 265.722 41.6798H265.608C265.189 41.6798 264.811 41.818 264.473 42.0935C264.135 42.369 263.905 42.8013 263.781 43.3893H267.334Z" fill="#EB6941"/>
<path d="M274.756 47.8073V41.8504H273.186V40.6823H274.756V39.3286C274.756 38.8251 274.882 38.4503 275.134 38.2024C275.386 37.9558 275.759 37.8323 276.255 37.8323H278.253V39.0151H276.683C276.473 39.0151 276.326 39.0559 276.24 39.1357C276.154 39.2174 276.112 39.3666 276.112 39.5846V40.6823H277.896V41.8504H276.112V47.8073H274.756Z" fill="#EB6941"/>
<path d="M281.664 47.9503C281.141 47.9503 280.699 47.8411 280.337 47.6221C279.975 47.4041 279.701 47.1024 279.516 46.7172C279.331 46.3325 279.238 45.8888 279.238 45.3853V40.6823H280.593V45.1003C280.593 45.6698 280.712 46.0978 280.95 46.3823C281.188 46.6673 281.551 46.8103 282.035 46.8103H282.15C282.464 46.8103 282.756 46.7172 283.027 46.532C283.299 46.3472 283.519 46.0807 283.691 45.734C283.862 45.3872 283.948 44.9863 283.948 44.5298V40.6823H285.303V47.8073H283.948V46.4541C283.795 46.8816 283.522 47.2378 283.127 47.5228C282.732 47.8073 282.245 47.9503 281.664 47.9503ZM280.209 37.9041H281.636V39.4003H280.209V37.9041ZM282.92 37.9041H284.348V39.4003H282.92V37.9041Z" fill="#EB6941"/>
<path d="M287.444 47.8073V40.6823H288.728V42.2503C288.871 41.7278 289.131 41.3236 289.507 41.0386C289.882 40.7536 290.312 40.6111 290.799 40.6111H291.44V41.9216H290.869C290.222 41.9216 289.716 42.1239 289.35 42.5277C288.983 42.931 288.8 43.4896 288.8 44.2021V47.8073H287.444Z" fill="#EB6941"/>
<path d="M159.579 65.1933V55.2183H163.86C164.47 55.2183 165.012 55.3342 165.487 55.5669C165.963 55.8001 166.335 56.1227 166.602 56.5364C166.867 56.9496 167.001 57.4123 167.001 57.9253C167.001 58.5528 166.846 59.0943 166.536 59.5498C166.228 60.0063 165.835 60.305 165.359 60.448C165.92 60.448 166.31 60.5544 166.53 60.7691C166.748 60.9824 166.858 61.3415 166.858 61.844V65.1933H165.431V62.2003C165.431 61.8117 165.362 61.5472 165.223 61.4099C165.086 61.2726 164.822 61.2033 164.432 61.2033H161.006V65.1933H159.579ZM163.647 59.9208C164.037 59.9208 164.379 59.8419 164.674 59.6852C164.969 59.5284 165.193 59.3151 165.345 59.0444C165.497 58.7732 165.574 58.472 165.574 58.1395C165.574 57.607 165.405 57.2019 165.066 56.9207C164.729 56.6414 164.255 56.5003 163.647 56.5003H161.006V59.9208H163.647Z" fill="#EB6941"/>
<path d="M171.981 65.3358C171.344 65.3358 170.763 65.179 170.24 64.8655C169.717 64.552 169.305 64.115 169.006 63.5545C168.706 62.994 168.556 62.3523 168.556 61.6303C168.556 60.9088 168.706 60.2675 169.006 59.7061C169.305 59.146 169.717 58.709 170.24 58.3955C170.763 58.082 171.344 57.9248 171.981 57.9248C172.619 57.9248 173.2 58.082 173.722 58.3955C174.246 58.709 174.657 59.146 174.957 59.7061C175.257 60.2675 175.407 60.9088 175.407 61.6303C175.407 62.3523 175.257 62.994 174.957 63.5545C174.657 64.115 174.246 64.552 173.722 64.8655C173.2 65.179 172.619 65.3358 171.981 65.3358ZM172.039 64.1958C172.428 64.1958 172.776 64.0936 173.081 63.8894C173.385 63.6842 173.623 63.3902 173.794 63.0054C173.965 62.6211 174.051 62.1628 174.051 61.6303C174.051 61.0988 173.965 60.6394 173.794 60.2556C173.623 59.8704 173.385 59.5764 173.081 59.3712C172.776 59.1674 172.428 59.0653 172.039 59.0653H171.925C171.535 59.0653 171.187 59.1674 170.883 59.3712C170.578 59.5764 170.34 59.8704 170.169 60.2556C169.997 60.6394 169.912 61.0988 169.912 61.6303C169.912 62.1628 169.997 62.6211 170.169 63.0054C170.34 63.3902 170.578 63.6842 170.883 63.8894C171.187 64.0936 171.535 64.1958 171.925 64.1958H172.039Z" fill="#EB6941"/>
<path d="M178.461 55.2183H177.105V65.1933H178.461V55.2183Z" fill="#EB6941"/>
<path d="M181.958 55.2183H180.602V65.1933H181.958V55.2183Z" fill="#EB6941"/>
<path d="M186.482 65.3358C185.559 65.3358 184.841 65.1168 184.327 64.6798C183.813 64.2428 183.556 63.678 183.556 62.984H184.912C184.949 63.393 185.112 63.6965 185.398 63.896C185.683 64.0955 186.049 64.1958 186.496 64.1958H186.61C186.991 64.1958 187.307 64.1103 187.56 63.9388C187.812 63.7678 187.938 63.545 187.938 63.2686C187.938 63.032 187.862 62.8373 187.709 62.6853C187.557 62.5333 187.31 62.4235 186.967 62.357L185.925 62.1575C185.297 62.034 184.792 61.8065 184.412 61.4735C184.032 61.1415 183.842 60.6898 183.842 60.1203C183.842 59.6638 183.965 59.2695 184.213 58.937C184.46 58.605 184.788 58.3528 185.198 58.1818C185.606 58.0113 186.054 57.9248 186.539 57.9248C187.443 57.9248 188.139 58.1414 188.63 58.5737C189.12 59.0059 189.365 59.5735 189.365 60.277H188.009C187.971 59.925 187.838 59.6358 187.61 59.4078C187.381 59.1793 187.048 59.0653 186.61 59.0653H186.496C186.106 59.0653 185.792 59.1532 185.555 59.3289C185.317 59.5051 185.198 59.7213 185.198 59.9773C185.198 60.2248 185.276 60.4214 185.433 60.5691C185.59 60.7164 185.844 60.8233 186.196 60.8893L187.324 61.1173C187.924 61.2313 188.401 61.4569 188.758 61.7946C189.115 62.1314 189.293 62.5988 189.293 63.1983C189.293 63.6158 189.175 63.9887 188.937 64.3164C188.699 64.6446 188.368 64.8959 187.945 65.0712C187.522 65.2474 187.034 65.3358 186.482 65.3358Z" fill="#EB6941"/>
<path d="M191.063 68.0433V58.0683H192.419V59.0658C192.6 58.7428 192.914 58.472 193.361 58.254C193.808 58.035 194.279 57.9253 194.775 57.9253C195.374 57.9253 195.903 58.073 196.365 58.368C196.827 58.662 197.188 59.0871 197.451 59.6424C197.712 60.1982 197.843 60.8617 197.843 61.6308C197.843 62.3908 197.702 63.051 197.422 63.6115C197.141 64.172 196.756 64.5995 196.266 64.8935C195.775 65.1885 195.231 65.3362 194.631 65.3362C194.146 65.3362 193.701 65.2284 193.297 65.0151C192.892 64.8019 192.6 64.5283 192.419 64.1958V68.0433H191.063ZM194.546 64.1958C194.917 64.1958 195.247 64.0984 195.537 63.9036C195.828 63.7089 196.059 63.4196 196.229 63.0344C196.402 62.6496 196.487 62.1818 196.487 61.6308C196.487 60.8043 196.306 60.1706 195.944 59.7279C195.583 59.2862 195.117 59.0658 194.546 59.0658H194.432C194.079 59.0658 193.751 59.1631 193.447 59.3579C193.142 59.5526 192.895 59.8448 192.704 60.2347C192.514 60.6242 192.419 61.0888 192.419 61.6308C192.419 62.1727 192.514 62.6382 192.704 63.0268C192.895 63.4168 193.142 63.7089 193.447 63.9036C193.751 64.0984 194.079 64.1958 194.432 64.1958H194.546Z" fill="#EB6941"/>
<path d="M199.498 55.2183H200.997V56.7862H199.498V55.2183ZM199.57 58.0683H200.925V65.1933H199.57V58.0683Z" fill="#EB6941"/>
<path d="M206.006 65.3358C205.398 65.3358 204.838 65.1947 204.329 64.9144C203.82 64.6351 203.411 64.2143 203.102 63.6538C202.793 63.0933 202.638 62.4145 202.638 61.6165C202.638 60.828 202.793 60.1554 203.102 59.5997C203.411 59.0439 203.82 58.6264 204.329 58.3452C204.838 58.0659 205.383 57.9248 205.964 57.9248C206.572 57.9248 207.106 58.0559 207.562 58.3176C208.019 58.5789 208.371 58.9465 208.618 59.4215C208.866 59.8965 208.989 60.4428 208.989 61.0608V61.8436H203.994C204.023 62.357 204.137 62.7893 204.337 63.1408C204.536 63.4923 204.787 63.7559 205.085 63.9321C205.386 64.1074 205.688 64.1958 205.993 64.1958H206.107C206.477 64.1958 206.806 64.1008 207.092 63.9108C207.377 63.7208 207.553 63.4453 207.62 63.0843H208.975C208.851 63.7873 208.514 64.3373 207.962 64.7363C207.41 65.1363 206.758 65.3358 206.006 65.3358ZM207.633 60.7748C207.605 60.1963 207.441 59.7654 207.141 59.4857C206.842 59.2054 206.468 59.0653 206.021 59.0653H205.907C205.488 59.0653 205.11 59.2035 204.772 59.479C204.434 59.7545 204.204 60.1868 204.08 60.7748H207.633Z" fill="#EB6941"/>
<path d="M212.101 55.2183H210.745V65.1933H212.101V55.2183Z" fill="#EB6941"/>
<path d="M220.079 65.3358C219.556 65.3358 219.114 65.2265 218.752 65.0076C218.39 64.7895 218.116 64.4879 217.931 64.1027C217.746 63.7179 217.653 63.2743 217.653 62.7708V58.0678H219.008V62.4858C219.008 63.0553 219.127 63.4833 219.365 63.7678C219.603 64.0528 219.966 64.1958 220.45 64.1958H220.565C220.879 64.1958 221.171 64.1027 221.442 63.9174C221.714 63.7327 221.934 63.4662 222.106 63.1194C222.277 62.7727 222.363 62.3718 222.363 61.9153V58.0678H223.718V65.1928H222.363V63.8395C222.21 64.267 221.937 64.6233 221.542 64.9083C221.147 65.1928 220.66 65.3358 220.079 65.3358Z" fill="#EB6941"/>
<path d="M225.859 65.1933V58.0683H227.215V59.0658C227.453 58.7138 227.757 58.4364 228.128 58.2326C228.5 58.0284 228.956 57.9253 229.499 57.9253C230.041 57.9253 230.505 58.0284 230.89 58.2326C231.275 58.4364 231.568 58.7261 231.768 59.1019C231.968 59.4766 232.068 59.9165 232.068 60.419V65.1933H230.711V60.705C230.711 60.3625 230.662 60.0704 230.562 59.8281C230.462 59.5859 230.305 59.3987 230.091 59.2653C229.877 59.1323 229.603 59.0658 229.27 59.0658H229.156C228.814 59.0658 228.494 59.1508 228.2 59.3227C227.905 59.4933 227.666 59.7403 227.486 60.0628C227.305 60.3867 227.215 60.7663 227.215 61.2033V65.1933H225.859Z" fill="#EB6941"/>
<path d="M236.792 65.3358C236.192 65.3358 235.662 65.1881 235.2 64.8931C234.739 64.5991 234.377 64.1744 234.116 63.6187C233.854 63.0629 233.724 62.3993 233.724 61.6303C233.724 60.8708 233.864 60.2101 234.145 59.6496C234.425 59.0895 234.81 58.6616 235.3 58.3675C235.79 58.0726 236.335 57.9248 236.935 57.9248C237.42 57.9248 237.864 58.0327 238.269 58.2459C238.673 58.4592 238.966 58.7333 239.146 59.0653V55.2178H240.503V65.1928H239.146V64.1958C238.966 64.5183 238.652 64.7895 238.205 65.0076C237.757 65.2265 237.286 65.3358 236.792 65.3358ZM237.135 64.1958C237.486 64.1958 237.815 64.0984 238.119 63.9032C238.424 63.7084 238.67 63.4163 238.861 63.0268C239.052 62.6378 239.146 62.1723 239.146 61.6303C239.146 61.0888 239.052 60.6238 238.861 60.2343C238.67 59.8443 238.424 59.5522 238.119 59.3574C237.815 59.1627 237.486 59.0653 237.135 59.0653H237.02C236.649 59.0653 236.318 59.1627 236.028 59.3574C235.738 59.5522 235.508 59.8419 235.335 60.2267C235.165 60.6119 235.079 61.0793 235.079 61.6303C235.079 62.4568 235.259 63.0905 235.621 63.5332C235.982 63.9749 236.449 64.1958 237.02 64.1958H237.135Z" fill="#EB6941"/>
<path d="M246.34 65.1933V55.2183H250.622C251.231 55.2183 251.773 55.3342 252.249 55.5669C252.724 55.8001 253.096 56.1227 253.363 56.5364C253.628 56.9496 253.762 57.4123 253.762 57.9253C253.762 58.5528 253.607 59.0943 253.298 59.5498C252.989 60.0063 252.596 60.305 252.12 60.448C252.682 60.448 253.072 60.5544 253.291 60.7691C253.509 60.9824 253.619 61.3415 253.619 61.844V65.1933H252.192V62.2003C252.192 61.8117 252.123 61.5472 251.985 61.4099C251.847 61.2726 251.583 61.2033 251.193 61.2033H247.767V65.1933H246.34ZM250.408 59.9208C250.798 59.9208 251.14 59.8419 251.436 59.6852C251.73 59.5284 251.954 59.3151 252.106 59.0444C252.259 58.7732 252.335 58.472 252.335 58.1395C252.335 57.607 252.166 57.2019 251.828 56.9207C251.49 56.6414 251.016 56.5003 250.408 56.5003H247.767V59.9208H250.408Z" fill="#EB6941"/>
<path d="M258.743 65.3358C258.105 65.3358 257.524 65.179 257.001 64.8655C256.478 64.552 256.066 64.115 255.767 63.5545C255.467 62.994 255.318 62.3523 255.318 61.6303C255.318 60.9088 255.467 60.2675 255.767 59.7061C256.066 59.146 256.478 58.709 257.001 58.3955C257.524 58.082 258.105 57.9248 258.743 57.9248C259.38 57.9248 259.961 58.082 260.484 58.3955C261.007 58.709 261.419 59.146 261.719 59.7061C262.018 60.2675 262.168 60.9088 262.168 61.6303C262.168 62.3523 262.018 62.994 261.719 63.5545C261.419 64.115 261.007 64.552 260.484 64.8655C259.961 65.179 259.38 65.3358 258.743 65.3358ZM258.8 64.1958C259.189 64.1958 259.537 64.0936 259.842 63.8894C260.146 63.6842 260.384 63.3902 260.556 63.0054C260.726 62.6211 260.812 62.1628 260.812 61.6303C260.812 61.0988 260.726 60.6394 260.556 60.2556C260.384 59.8704 260.146 59.5764 259.842 59.3712C259.537 59.1674 259.189 59.0653 258.8 59.0653H258.686C258.296 59.0653 257.948 59.1674 257.644 59.3712C257.34 59.5764 257.102 59.8704 256.93 60.2556C256.759 60.6394 256.673 61.0988 256.673 61.6303C256.673 62.1628 256.759 62.6211 256.93 63.0054C257.102 63.3902 257.34 63.6842 257.644 63.8894C257.948 64.0936 258.296 64.1958 258.686 64.1958H258.8Z" fill="#EB6941"/>
<path d="M265.222 55.2183H263.866V65.1933H265.222V55.2183Z" fill="#EB6941"/>
<path d="M268.719 55.2183H267.363V65.1933H268.719V55.2183Z" fill="#EB6941"/>
<path d="M273.243 65.3358C272.321 65.3358 271.602 65.1168 271.089 64.6798C270.575 64.2428 270.317 63.678 270.317 62.984H271.674C271.711 63.393 271.873 63.6965 272.159 63.896C272.444 64.0955 272.81 64.1958 273.257 64.1958H273.372C273.752 64.1958 274.068 64.1103 274.321 63.9388C274.573 63.7678 274.699 63.545 274.699 63.2686C274.699 63.032 274.623 62.8373 274.471 62.6853C274.318 62.5333 274.071 62.4235 273.728 62.357L272.687 62.1575C272.059 62.034 271.554 61.8065 271.174 61.4735C270.793 61.1415 270.603 60.6898 270.603 60.1203C270.603 59.6638 270.726 59.2695 270.974 58.937C271.221 58.605 271.549 58.3528 271.959 58.1818C272.368 58.0113 272.815 57.9248 273.301 57.9248C274.204 57.9248 274.901 58.1414 275.392 58.5737C275.881 59.0059 276.127 59.5735 276.127 60.277H274.771C274.733 59.925 274.599 59.6358 274.371 59.4078C274.143 59.1793 273.809 59.0653 273.372 59.0653H273.257C272.867 59.0653 272.554 59.1532 272.316 59.3289C272.078 59.5051 271.959 59.7213 271.959 59.9773C271.959 60.2248 272.037 60.4214 272.194 60.5691C272.351 60.7164 272.606 60.8233 272.958 60.8893L274.085 61.1173C274.685 61.2313 275.163 61.4569 275.52 61.7946C275.876 62.1314 276.055 62.5988 276.055 63.1983C276.055 63.6158 275.936 63.9887 275.698 64.3164C275.46 64.6446 275.129 64.8959 274.707 65.0712C274.283 65.2474 273.795 65.3358 273.243 65.3358Z" fill="#EB6941"/>
<path d="M277.825 68.0433V58.0683H279.18V59.0658C279.361 58.7428 279.676 58.472 280.122 58.254C280.57 58.035 281.041 57.9253 281.536 57.9253C282.135 57.9253 282.665 58.073 283.127 58.368C283.588 58.662 283.95 59.0871 284.212 59.6424C284.473 60.1982 284.604 60.8617 284.604 61.6308C284.604 62.3908 284.464 63.051 284.183 63.6115C283.902 64.172 283.517 64.5995 283.027 64.8935C282.536 65.1885 281.992 65.3362 281.393 65.3362C280.907 65.3362 280.463 65.2284 280.058 65.0151C279.653 64.8019 279.361 64.5283 279.18 64.1958V68.0433H277.825ZM281.307 64.1958C281.678 64.1958 282.009 64.0984 282.298 63.9036C282.59 63.7089 282.82 63.4196 282.991 63.0344C283.163 62.6496 283.248 62.1818 283.248 61.6308C283.248 60.8043 283.067 60.1706 282.706 59.7279C282.344 59.2862 281.878 59.0658 281.307 59.0658H281.193C280.841 59.0658 280.513 59.1631 280.208 59.3579C279.903 59.5526 279.656 59.8448 279.465 60.2347C279.275 60.6242 279.18 61.0888 279.18 61.6308C279.18 62.1727 279.275 62.6382 279.465 63.0268C279.656 63.4168 279.903 63.7089 280.208 63.9036C280.513 64.0984 280.841 64.1958 281.193 64.1958H281.307Z" fill="#EB6941"/>
<path d="M289.314 65.3358C288.676 65.3358 288.095 65.179 287.573 64.8655C287.049 64.552 286.638 64.115 286.339 63.5545C286.038 62.994 285.889 62.3523 285.889 61.6303C285.889 60.9088 286.038 60.2675 286.339 59.7061C286.638 59.146 287.049 58.709 287.573 58.3955C288.095 58.082 288.676 57.9248 289.314 57.9248C289.951 57.9248 290.532 58.082 291.055 58.3955C291.578 58.709 291.99 59.146 292.29 59.7061C292.589 60.2675 292.74 60.9088 292.74 61.6303C292.74 62.3523 292.589 62.994 292.29 63.5545C291.99 64.115 291.578 64.552 291.055 64.8655C290.532 65.179 289.951 65.3358 289.314 65.3358ZM289.371 64.1958C289.761 64.1958 290.108 64.0936 290.413 63.8894C290.718 63.6842 290.956 63.3902 291.127 63.0054C291.298 62.6211 291.383 62.1628 291.383 61.6303C291.383 61.0988 291.298 60.6394 291.127 60.2556C290.956 59.8704 290.718 59.5764 290.413 59.3712C290.108 59.1674 289.761 59.0653 289.371 59.0653H289.257C288.867 59.0653 288.519 59.1674 288.215 59.3712C287.911 59.5764 287.673 59.8704 287.502 60.2556C287.33 60.6394 287.244 61.0988 287.244 61.6303C287.244 62.1628 287.33 62.6211 287.502 63.0054C287.673 63.3902 287.911 63.6842 288.215 63.8894C288.519 64.0936 288.867 64.1958 289.257 64.1958H289.371Z" fill="#EB6941"/>
<path d="M294.438 65.1933V58.0683H295.722V59.6363C295.865 59.1138 296.124 58.7095 296.5 58.4245C296.876 58.1395 297.306 57.997 297.792 57.997H298.434V59.3076H297.862C297.216 59.3076 296.709 59.5099 296.343 59.9137C295.976 60.3169 295.793 60.8755 295.793 61.588V65.1933H294.438Z" fill="#EB6941"/>
<path d="M302.116 65.1933C301.622 65.1933 301.236 65.056 300.96 64.7805C300.684 64.505 300.547 64.1198 300.547 63.6253V59.2363H298.976V58.0683H300.547V55.7603H301.902V58.0683H303.615V59.2363H301.902V63.412C301.902 63.6206 301.945 63.7683 302.03 63.8538C302.116 63.9388 302.264 63.9816 302.473 63.9816H303.83V65.1933H302.116Z" fill="#EB6941"/>
</g>
<defs>
<clipPath id="clip0_952_10373">
<rect width="304" height="76" fill="white"/>
</clipPath>
</defs>
</svg>
